<svg width="33" height="33" viewBox="0 0 33 33" fill="none" xmlns="http://www.w3.org/2000/svg">
<path fill-rule="evenodd" clip-rule="evenodd" d="M26.996 26.8386H22.6837V19.2529C22.6837 17.1731 21.9166 16.0103 20.3257 16.0103C18.5895 16.0103 17.6851 17.219 17.6851 19.2529V26.8386H13.5262V12.3883H17.6851V14.3348C17.6851 14.3348 18.9367 11.9465 21.9044 11.9465C24.8721 11.9465 27 13.8179 27 17.6899V26.8386H26.996ZM8.56393 10.4961C7.1467 10.4961 6 9.30406 6 7.82861C6 6.35316 7.1467 5.16113 8.56393 5.16113C9.98116 5.16113 11.1279 6.35316 11.1279 7.82861C11.1279 9.30406 9.98116 10.4961 8.56393 10.4961ZM6.41588 26.8386H10.7524V12.3883H6.41588V26.8386Z" fill="#DBE17F"/>
</svg>
